# Blender v2.92.0 OBJ File: ''
# www.blender.org
mtllib box.mtl
o Cube
v -0.300369 0.204860 -1.510065
v 0.653550 -0.359126 -1.362493
v 0.239021 1.532729 0.078074
v 1.192940 0.968744 0.225646
v -1.192940 -0.968744 -0.225646
v -0.239021 -1.532729 -0.078074
v -0.653550 0.359126 1.362493
v 0.300369 -0.204860 1.510065
v 1.389900 2.427322 -3.942380
v 2.343820 1.863337 -3.794807
v 1.929290 3.755192 -2.354241
v 2.883209 3.191206 -2.206668
vt 0.625000 0.500000
vt 0.875000 0.500000
vt 0.875000 0.750000
vt 0.625000 0.750000
vt 0.375000 0.750000
vt 0.625000 1.000000
vt 0.375000 1.000000
vt 0.375000 0.000000
vt 0.625000 0.000000
vt 0.625000 0.250000
vt 0.375000 0.250000
vt 0.125000 0.500000
vt 0.375000 0.500000
vt 0.125000 0.750000
vt 0.625000 0.750000
vt 0.625000 0.500000
vt 0.375000 0.500000
vt 0.375000 0.750000
vn -0.8533 0.5045 -0.1320
vn 0.2521 0.6207 0.7424
vn -0.4565 -0.6002 0.6568
vn 0.8533 -0.5045 0.1320
vn -0.2521 -0.6207 -0.7424
vn 0.4565 0.6002 -0.6568
usemtl Material
s off
f 1/1/1 5/2/1 7/3/1 3/4/1
f 4/5/2 3/4/2 7/6/2 8/7/2
f 8/8/3 7/9/3 5/10/3 6/11/3
f 6/12/4 2/13/4 4/5/4 8/14/4
f 1/1/1 3/4/1 11/15/1 9/16/1
f 6/11/5 5/10/5 1/1/5 2/13/5
f 10/17/6 9/16/6 11/15/6 12/18/6
f 3/4/2 4/5/2 12/18/2 11/15/2
f 2/13/5 1/1/5 9/16/5 10/17/5
f 4/5/4 2/13/4 10/17/4 12/18/4
