# Blender v2.92.0 OBJ File: ''
# www.blender.org
mtllib box4.mtl
o Cube.001
v -1.028333 1.559193 -0.964766
v -1.418250 1.210423 -0.964766
v 1.098860 -0.818956 1.577698
v 0.708943 -1.167727 1.577698
v -0.711753 1.205265 -1.560693
v -1.101670 0.856494 -1.560693
v 1.415440 -1.172885 0.981771
v 1.025523 -1.521656 0.981771
vt 0.625000 0.500000
vt 0.625000 0.750000
vt 0.875000 0.750000
vt 0.875000 0.500000
vt 0.375000 0.750000
vt 0.375000 1.000000
vt 0.625000 1.000000
vt 0.375000 0.000000
vt 0.375000 0.250000
vt 0.625000 0.250000
vt 0.625000 0.000000
vt 0.125000 0.500000
vt 0.125000 0.750000
vt 0.375000 0.500000
vn 0.7453 0.6667 -0.0000
vn 0.5214 -0.5829 0.6232
vn 0.4155 -0.4645 -0.7821
vn -0.7453 -0.6667 0.0000
vn -0.4155 0.4645 0.7821
vn -0.5214 0.5829 -0.6232
usemtl Material.001
s off
f 1/1/1 3/2/1 7/3/1 5/4/1
f 4/5/2 8/6/2 7/7/2 3/2/2
f 8/8/3 6/9/3 5/10/3 7/11/3
f 6/12/4 8/13/4 4/5/4 2/14/4
f 2/14/5 4/5/5 3/2/5 1/1/5
f 6/9/6 2/14/6 1/1/6 5/10/6
o Cube_Cube.002
v 0.582616 -1.682331 1.647553
v 0.582616 -0.791090 1.647553
v 0.582616 -1.682331 0.756312
v 0.582616 -0.791090 0.756312
v 1.473858 -1.682331 1.647553
v 1.473858 -0.791090 1.647553
v 1.473858 -1.682331 0.756312
v 1.473858 -0.791090 0.756312
vt 0.375000 0.000000
vt 0.625000 0.000000
vt 0.625000 0.250000
vt 0.375000 0.250000
vt 0.625000 0.500000
vt 0.375000 0.500000
vt 0.625000 0.750000
vt 0.375000 0.750000
vt 0.625000 1.000000
vt 0.375000 1.000000
vt 0.125000 0.500000
vt 0.125000 0.750000
vt 0.875000 0.500000
vt 0.875000 0.750000
vn -1.0000 0.0000 0.0000
vn 0.0000 0.0000 -1.0000
vn 1.0000 0.0000 0.0000
vn 0.0000 0.0000 1.0000
vn 0.0000 -1.0000 0.0000
vn 0.0000 1.0000 0.0000
usemtl None
s off
f 9/15/7 10/16/7 12/17/7 11/18/7
f 11/18/8 12/17/8 16/19/8 15/20/8
f 15/20/9 16/19/9 14/21/9 13/22/9
f 13/22/10 14/21/10 10/23/10 9/24/10
f 11/25/11 15/20/11 13/22/11 9/26/11
f 16/19/12 12/27/12 10/28/12 14/21/12
o Cube.002_Cube.003
v -1.544862 0.732305 -0.675970
v -1.544862 1.623546 -0.675970
v -1.544862 0.732305 -1.567212
v -1.544862 1.623546 -1.567212
v -0.653620 0.732305 -0.675970
v -0.653620 1.623546 -0.675970
v -0.653620 0.732305 -1.567212
v -0.653620 1.623546 -1.567212
vt 0.375000 0.000000
vt 0.625000 0.000000
vt 0.625000 0.250000
vt 0.375000 0.250000
vt 0.625000 0.500000
vt 0.375000 0.500000
vt 0.625000 0.750000
vt 0.375000 0.750000
vt 0.625000 1.000000
vt 0.375000 1.000000
vt 0.125000 0.500000
vt 0.125000 0.750000
vt 0.875000 0.500000
vt 0.875000 0.750000
vn -1.0000 0.0000 0.0000
vn 0.0000 0.0000 -1.0000
vn 1.0000 0.0000 0.0000
vn 0.0000 0.0000 1.0000
vn 0.0000 -1.0000 0.0000
vn 0.0000 1.0000 0.0000
usemtl None
s off
f 17/29/13 18/30/13 20/31/13 19/32/13
f 19/32/14 20/31/14 24/33/14 23/34/14
f 23/34/15 24/33/15 22/35/15 21/36/15
f 21/36/16 22/35/16 18/37/16 17/38/16
f 19/39/17 23/34/17 21/36/17 17/40/17
f 24/33/18 20/41/18 18/42/18 22/35/18
