# Blender v2.92.0 OBJ File: ''
# www.blender.org
mtllib boxcursed.mtl
o Cube.001
v -0.838990 1.744104 1.575235
v -0.806140 1.585826 1.749110
v 1.657839 -1.078915 -1.466278
v 1.690689 -1.237193 -1.292403
v -1.693499 1.274731 1.309408
v -1.660649 1.116453 1.483283
v 0.803330 -1.548288 -1.732105
v 0.836180 -1.706566 -1.558230
vt 0.625000 0.500000
vt 0.625000 0.750000
vt 0.875000 0.750000
vt 0.875000 0.500000
vt 0.375000 0.750000
vt 0.375000 1.000000
vt 0.625000 1.000000
vt 0.375000 0.000000
vt 0.375000 0.250000
vt 0.625000 0.250000
vt 0.625000 0.000000
vt 0.125000 0.500000
vt 0.125000 0.750000
vt 0.375000 0.500000
vn -0.1384 0.6667 -0.7324
vn 0.5156 -0.5829 -0.6280
vn -0.8456 -0.4645 -0.2631
vn 0.1384 -0.6667 0.7324
vn 0.8456 0.4645 0.2631
vn -0.5156 0.5829 0.6280
usemtl Material.001
s off
f 1/1/1 3/2/1 7/3/1 5/4/1
f 4/5/2 8/6/2 7/7/2 3/2/2
f 8/8/3 6/9/3 5/10/3 7/11/3
f 6/12/4 8/13/4 4/5/4 2/14/4
f 2/14/5 4/5/5 3/2/5 1/1/5
f 6/9/6 2/14/6 1/1/6 5/10/6
